<svg id="Capa_1" enable-background="new 0 0 511.76 511.76" height="512" viewBox="0 0 511.76 511.76" width="512" xmlns="http://www.w3.org/2000/svg"><g><g><path d="m480.856 209.523-105.819-77.471s-46.954-33.584-103.031-38.795v-56.584c-31.517 0-57.067 25.55-57.067 57.067v5.831c-16.725 5.833-33.172 15.723-48.432 31.164-49.147 49.727-48.37 147.938-36.918 228.845l-24.565 144.562h360c-15-53.5-68.343-86.43-116.834-109.745 0 0-28.981-73.597-35.387-110.69 13.42.567 26.81-3.3 37.905-11.148l67.994 25.233 2.321 9.49c1.37 5.602 5.208 10.28 10.433 12.718l18.924 8.831c8.86 4.135 19.412.879 24.402-7.529l21.664-36.991c14.717-25.243 7.987-57.526-15.59-74.788z" fill="#fef2e2"/><path d="m480.856 209.523-5.254-3.846 1.038 3.318c15.362 11.247 19.715 32.13 10.126 48.578l-28.737 52.759-17.692-8.256-4.731-19.342-87.834-32.596-8.615 6.093c-6.865 4.856-15.309 7.53-23.774 7.53-.579 0-1.159-.012-1.737-.037l-24.772-1.046 4.219 24.432c6.678 38.667 35.272 111.532 36.486 114.615l2.874 7.298 7.069 3.399c34.311 16.497 73.821 38.903 94.745 71.72l8.232 20h22.524c-15-53.5-68.343-86.43-116.834-109.745 0 0-28.981-73.597-35.387-110.69 13.42.567 26.81-3.3 37.905-11.148l67.994 25.233 2.321 9.49c1.37 5.602 5.208 10.28 10.433 12.718l18.924 8.831c8.86 4.135 19.412.879 24.402-7.529l21.664-36.991c14.718-25.243 7.989-57.526-15.589-74.788z" fill="#ffe1ba"/><path d="m336.957 111.094 57.154-81.261c4.104-5.836 3.205-13.817-2.094-18.593s-13.331-4.844-18.71-.158l-95.121 82.87c9.848 1.286 19.362 3.396 28.33 5.983 11.123 3.208 21.405 7.149 30.441 11.159z" fill="#feef8f"/><path d="m392.017 11.24c-5.071-4.571-12.638-4.818-17.995-.725 1.4 4.14.86 8.841-1.81 12.638l-56.12 79.792c7.477 2.528 14.487 5.319 20.865 8.149l57.154-81.261c4.104-5.835 3.206-13.816-2.094-18.593z" fill="#ffc277"/><path d="m7.5 504.142h97.523l24.565-144.562c-11.451-80.907-12.229-179.118 36.918-228.845 15.26-15.44 31.707-25.33 48.432-31.164v-5.831c0-12.672 4.137-24.375 11.125-33.845-15.598-17.914-38.553-29.253-64.172-29.253-46.987 0-85.078 38.091-85.078 85.078 0 17.36 5.211 33.498 14.138 46.957-21.103 13.05-35.17 36.392-35.17 63.027 0 12.545 3.13 24.354 8.635 34.709-29.026 17.266-48.479 48.942-48.479 85.166 0 30.606 13.887 57.966 35.7 76.131-26.607 17.755-44.137 48.044-44.137 82.432z" fill="#f88fa4"/><path d="m208.419 44.51c-1.5 6.026-3.906 12.443-7.425 19.218-2.995 7.064-4.907 14.546-5.673 22.258-15.672 7.317-30.104 17.602-43.04 30.69-25.532 25.833-41.29 64.387-46.838 114.592-4.049 36.644-2.733 79.699 3.909 128.011l-26.194 144.863h21.865l24.565-144.562c-11.451-80.907-12.229-179.118 36.918-228.845 15.26-15.44 31.707-25.33 48.432-31.164v-5.831c0-12.672 4.137-24.375 11.125-33.845-5.138-5.9-11.078-11.082-17.644-15.385z" fill="#f05475"/><path d="m161.891 30.642c-46.987 0-85.078 38.091-85.078 85.078 0 17.36 5.211 33.498 14.138 46.957-21.103 13.05-35.17 36.392-35.17 63.027 0 12.545 3.13 24.354 8.635 34.709-29.026 17.266-48.479 48.942-48.479 85.166 0 30.606 13.887 57.966 35.7 76.131l70.134-16.131 7.816-46c-11.451-80.907-12.229-179.118 36.918-228.845 15.26-15.44 31.707-25.33 48.432-31.164v-5.83c0-12.672 4.137-24.375 11.125-33.845-15.597-17.914-38.553-29.253-64.171-29.253z" fill="#b5efff"/><path d="m208.419 44.51c-1.5 6.026-3.906 12.443-7.425 19.218-2.995 7.064-4.907 14.546-5.673 22.258-15.672 7.317-30.104 17.602-43.04 30.69-25.532 25.833-41.29 64.387-46.838 114.592-4.049 36.644-2.733 79.699 3.909 128.011l-9.274 51.29 21.694-4.99 7.816-46c-11.451-80.907-12.229-179.118 36.918-228.845 15.26-15.44 31.707-25.33 48.432-31.164v-5.83c0-12.672 4.137-24.375 11.125-33.845-5.138-5.9-11.078-11.082-17.644-15.385z" fill="#80dbff"/><path d="m161.891 30.642c-46.987 0-85.078 38.091-85.078 85.078 0 17.36 5.211 33.498 14.138 46.957-21.103 13.05-35.17 36.392-35.17 63.027 0 12.545 3.13 24.354 8.635 34.709l60.196-19.771c3.865-43.712 15.89-83.596 41.894-109.907 15.26-15.44 31.707-25.33 48.432-31.164v-5.831c0-12.672 4.137-24.375 11.125-33.845-15.598-17.914-38.554-29.253-64.172-29.253z" fill="#f88fa4"/><path d="m208.419 44.51c-1.5 6.026-3.906 12.443-7.425 19.218-2.995 7.064-4.907 14.546-5.673 22.258-15.672 7.317-30.104 17.602-43.04 30.69-25.532 25.833-41.29 64.387-46.838 114.592-.579 5.241-1.036 10.628-1.395 16.128l20.564-6.754c3.865-43.712 15.89-83.596 41.894-109.907 15.26-15.44 31.707-25.33 48.432-31.164v-5.831c0-12.672 4.137-24.375 11.125-33.845-5.138-5.9-11.078-11.082-17.644-15.385z" fill="#f05475"/><path d="m214.938 93.74c0-12.672 4.137-24.375 11.125-33.845-15.598-17.914-38.553-29.253-64.172-29.253-46.987 0-85.078 38.091-85.078 85.078 0 17.36 5.211 33.498 14.138 46.957l59.947-12.036c4.53-7.257 9.706-13.935 15.608-19.907 15.26-15.44 31.707-25.33 48.432-31.164z" fill="#b5efff"/><path d="m208.419 44.51c-1.5 6.026-3.906 12.443-7.425 19.218-2.995 7.064-4.907 14.546-5.673 22.258-15.672 7.317-30.104 17.602-43.04 30.69-10.695 10.821-19.668 23.883-26.901 39.089l25.517-5.123c4.53-7.257 9.706-13.935 15.608-19.907 15.26-15.44 31.707-25.33 48.432-31.164v-5.831c0-12.672 4.137-24.375 11.125-33.845-5.137-5.9-11.077-11.082-17.643-15.385z" fill="#80dbff"/></g><g><path d="m464.428 231.38h15v32.238h-15z" transform="matrix(.914 -.405 .405 .914 -59.806 212.42)"/><path d="m276.667 361.463h15v15.301h-15z" transform="matrix(.367 -.93 .93 .367 -163.524 497.832)"/><path d="m485.286 203.472-105.886-77.52c-.967-.692-12.7-8.983-31.12-17.919l51.966-73.885c6.279-8.928 4.9-21.171-3.208-28.479-8.108-7.307-20.428-7.411-28.658-.241l-88.875 77.429v-53.684h-7.5c-18.119 0-34.508 7.512-46.245 19.573-17.154-16.361-39.986-25.605-63.869-25.605-51.048 0-92.578 41.53-92.578 92.578 0 15.77 3.971 31.104 11.542 44.771-20.525 15.374-32.574 39.246-32.574 65.213 0 10.979 2.24 21.901 6.521 31.963-20.881 14.354-36.318 36.071-42.808 60.519l14.498 3.849c6.014-22.655 20.99-42.573 41.129-54.78l48.693-15.993c-1.834 31.821.055 68.013 5.684 108.211l-6.783 39.92-61.536 14.154c-19.26-17.37-30.241-41.932-30.241-67.966 0-3.221.169-6.469.502-9.652l-14.918-1.562c-.388 3.7-.584 7.473-.584 11.214 0 28.543 11.331 55.569 31.38 75.504-25.092 20.151-39.818 50.551-39.818 83.058v7.5h474.915l-2.67-9.525c-7.001-24.969-22.664-48.004-46.553-68.467l-9.758 11.393c18.745 16.056 31.478 33.016 38.691 51.599h-340.72l23.272-136.957-.164-1.156c-8.719-61.606-8.516-113.298.606-153.639l-14.631-3.309c-2.365 10.461-4.16 21.625-5.385 33.469l-49.237 16.172c-3.338-8.051-5.086-16.76-5.086-25.517 0-22.798 11.389-43.613 30.526-55.951l42.842-8.602c-3.663 7.687-6.859 15.968-9.554 24.841l14.353 4.359c6.866-22.604 17.091-40.888 30.392-54.346 13.472-13.631 28.803-23.507 45.567-29.354l5.03-1.754v-11.158c0-24.782 18.282-45.375 42.067-49v78.648h15v-21.682c49.693 7.214 90.738 36.139 91.102 36.398l105.819 77.471c20.542 15.039 26.363 42.966 13.548 64.947l-10.379 17.722-32.949-17.276-6.966 13.284 32.327 16.95-3.674 6.274c-3.036 5.115-9.392 7.075-14.781 4.56l-18.924-8.831c-3.182-1.485-5.486-4.293-6.32-7.705l-3.267-13.354-75.434-27.994-3.231 2.285c-9.621 6.805-21.44 10.266-33.257 9.777l-1.469-.062c-27.704-1.999-49.638-25.162-49.638-53.367h-15c0 34.722 25.966 63.475 59.496 67.91 5.719 27.389 20.256 68.14 28.601 90.473l-27.063-10.688-5.51 13.951 42.631 16.836c24.601 11.84 43.454 22.853 59.309 34.645l8.952-12.036c-16.106-11.979-35.013-23.122-59.318-34.947-4.81-12.454-24.679-64.755-32.198-97.985 10.532-1.014 20.773-4.452 29.757-10.028l60.691 22.523 1.376 5.625c1.92 7.852 7.222 14.315 14.547 17.733l18.924 8.831c12.408 5.791 27.035 1.278 34.045-10.535l21.671-37.004c16.706-28.649 9.124-65.027-17.635-84.617zm-469.98 293.17c2.232-27.324 16.59-52.244 39.404-67.942l57.784-13.291-13.804 81.233zm192.132-402.277c-16.976 6.744-32.519 17.188-46.267 31.098-5.42 5.484-10.369 11.649-14.846 18.447l-51.731 10.386c-6.735-11.716-10.282-24.949-10.282-38.577 0-42.777 34.801-77.578 77.578-77.578 20.545 0 40.165 8.166 54.662 22.571-5.781 9.67-9.115 20.965-9.115 33.028v.625zm170.796-77.628c2.517-2.191 6.284-2.16 8.762.074 2.479 2.234 2.901 5.978.981 8.707l-53.625 76.245c-11.633-4.833-24.977-9.374-39.369-12.496z"/><path d="m345.812 143.392h-45v15h7.5v15.265h15v-15.265h22.5z"/><path d="m135.541 90.784h15.5v15h-15.5z"/><path d="m151.041 75.784h15.5v15h-15.5z" fill="#fff"/></g></g></svg>